<mxfile host="app.diagrams.net" modified="2023-10-05T08:51:45.258Z" agent="Mozilla/5.0 (Windows NT 10.0; Win64; x64; rv:109.0) Gecko/20100101 Firefox/118.0" etag="G4SC_wBlYowkLDRQcHPj" version="22.0.2" type="device">
  <diagram id="IKdcczgC__YtXfX8UIwX" name="Page-1">
    <mxGraphModel dx="420" dy="226" grid="1" gridSize="10" guides="1" tooltips="1" connect="1" arrows="1" fold="1" page="1" pageScale="1" pageWidth="827" pageHeight="1169" math="0" shadow="0">
      <root>
        <mxCell id="0" />
        <mxCell id="1" parent="0" />
        <mxCell id="m_R6_4stdK32f-bWhgOH-19" value="" style="endArrow=none;html=1;endFill=0;verticalAlign=bottom;exitX=1;exitY=0.25;exitDx=0;exitDy=0;entryX=0;entryY=0.5;entryDx=0;entryDy=0;" parent="1" source="m_R6_4stdK32f-bWhgOH-1" target="19y9xz3U2XeAm1oFRW64-2" edge="1">
          <mxGeometry relative="1" as="geometry">
            <mxPoint x="120" y="240" as="sourcePoint" />
            <mxPoint x="360" y="190" as="targetPoint" />
          </mxGeometry>
        </mxCell>
        <mxCell id="m_R6_4stdK32f-bWhgOH-20" value="&lt;font style=&quot;font-size: 9px;&quot;&gt;&lt;sub&gt;&lt;font style=&quot;font-size: 8px;&quot;&gt;&lt;font style=&quot;font-size: 9px;&quot;&gt;&lt;font style=&quot;font-size: 10px;&quot;&gt;verantwortlicher&lt;/font&gt;&lt;/font&gt;&lt;/font&gt;&lt;/sub&gt;&lt;/font&gt;" style="resizable=0;html=1;align=left;verticalAlign=bottom;labelBackgroundColor=none;fontSize=10;spacingTop=0;spacingLeft=4;spacing=0;spacingBottom=3;" parent="m_R6_4stdK32f-bWhgOH-19" connectable="0" vertex="1">
          <mxGeometry x="-1" relative="1" as="geometry" />
        </mxCell>
        <mxCell id="m_R6_4stdK32f-bWhgOH-21" value="&lt;font style=&quot;font-size: 9px;&quot;&gt;&lt;sub&gt;&lt;font style=&quot;font-size: 8px;&quot;&gt;&lt;font style=&quot;font-size: 9px;&quot;&gt;&lt;font style=&quot;font-size: 10px;&quot;&gt;vertreter&lt;/font&gt;&lt;/font&gt;&lt;/font&gt;&lt;/sub&gt;&lt;/font&gt;" style="resizable=0;html=1;align=right;verticalAlign=bottom;labelBackgroundColor=none;fontSize=10;spacingLeft=0;spacing=0;spacingBottom=3;spacingRight=4;spacingTop=0;" parent="m_R6_4stdK32f-bWhgOH-19" connectable="0" vertex="1">
          <mxGeometry x="1" relative="1" as="geometry">
            <mxPoint x="-1" as="offset" />
          </mxGeometry>
        </mxCell>
        <mxCell id="m_R6_4stdK32f-bWhgOH-1" value="&lt;u&gt;Max : Sachbearbeiter&lt;/u&gt;" style="html=1;fontStyle=0" parent="1" vertex="1">
          <mxGeometry x="40" y="160" width="160" height="40" as="geometry" />
        </mxCell>
        <mxCell id="-STVFB_1zqTISouC3BHJ-5" value="" style="endArrow=none;html=1;endFill=0;verticalAlign=top;exitX=1;exitY=0.75;exitDx=0;exitDy=0;spacing=-3;entryX=0;entryY=0.5;entryDx=0;entryDy=0;" parent="1" source="m_R6_4stdK32f-bWhgOH-1" target="19y9xz3U2XeAm1oFRW64-3" edge="1">
          <mxGeometry relative="1" as="geometry">
            <mxPoint x="200" y="270" as="sourcePoint" />
            <mxPoint x="380" y="290" as="targetPoint" />
            <mxPoint as="offset" />
          </mxGeometry>
        </mxCell>
        <mxCell id="-STVFB_1zqTISouC3BHJ-6" value="&lt;font style=&quot;font-size: 9px;&quot;&gt;&lt;sub&gt;&lt;font style=&quot;font-size: 8px;&quot;&gt;&lt;font style=&quot;font-size: 9px;&quot;&gt;&lt;font style=&quot;font-size: 10px;&quot;&gt;&lt;font style=&quot;font-size: 11px;&quot;&gt;&lt;font style=&quot;font-size: 10px;&quot;&gt;verantwortlicher&lt;/font&gt;&lt;/font&gt;&lt;/font&gt;&lt;/font&gt;&lt;/font&gt;&lt;/sub&gt;&lt;/font&gt;" style="resizable=0;html=1;align=left;verticalAlign=bottom;labelBackgroundColor=none;fontSize=10;spacingTop=0;spacingLeft=4;spacing=0;spacingBottom=2;rotation=30;" parent="-STVFB_1zqTISouC3BHJ-5" connectable="0" vertex="1">
          <mxGeometry x="-1" relative="1" as="geometry" />
        </mxCell>
        <mxCell id="-STVFB_1zqTISouC3BHJ-7" value="&lt;font style=&quot;font-size: 9px;&quot;&gt;&lt;sub&gt;&lt;font style=&quot;font-size: 8px;&quot;&gt;&lt;font style=&quot;font-size: 9px;&quot;&gt;&lt;font style=&quot;font-size: 10px;&quot;&gt;vertreter&lt;/font&gt;&lt;/font&gt;&lt;/font&gt;&lt;/sub&gt;&lt;/font&gt;" style="resizable=0;html=1;align=right;verticalAlign=bottom;labelBackgroundColor=none;fontSize=10;spacingLeft=0;spacing=0;spacingBottom=1;spacingRight=12;spacingTop=0;rotation=30;" parent="-STVFB_1zqTISouC3BHJ-5" connectable="0" vertex="1">
          <mxGeometry x="1" relative="1" as="geometry" />
        </mxCell>
        <mxCell id="19y9xz3U2XeAm1oFRW64-1" value="&lt;u&gt;Sabine : Sachbearbeiter&lt;/u&gt;" style="html=1;fontStyle=0" parent="1" vertex="1">
          <mxGeometry x="40" y="280" width="160" height="40" as="geometry" />
        </mxCell>
        <mxCell id="19y9xz3U2XeAm1oFRW64-2" value="&lt;u&gt;Paul : Sachbearbeiter&lt;/u&gt;" style="html=1;fontStyle=0" parent="1" vertex="1">
          <mxGeometry x="360.22" y="150" width="160" height="40" as="geometry" />
        </mxCell>
        <mxCell id="19y9xz3U2XeAm1oFRW64-3" value="&lt;u&gt;Hugo : Sachbearbeiter&lt;/u&gt;" style="html=1;fontStyle=0" parent="1" vertex="1">
          <mxGeometry x="360.22" y="260" width="160" height="40" as="geometry" />
        </mxCell>
        <mxCell id="19y9xz3U2XeAm1oFRW64-4" value="" style="endArrow=none;html=1;endFill=0;verticalAlign=bottom;exitX=0.5;exitY=0;exitDx=0;exitDy=0;entryX=0.5;entryY=1;entryDx=0;entryDy=0;" parent="1" source="19y9xz3U2XeAm1oFRW64-1" target="m_R6_4stdK32f-bWhgOH-1" edge="1">
          <mxGeometry relative="1" as="geometry">
            <mxPoint x="210" y="180" as="sourcePoint" />
            <mxPoint x="410" y="180" as="targetPoint" />
          </mxGeometry>
        </mxCell>
        <mxCell id="19y9xz3U2XeAm1oFRW64-5" value="&lt;font style=&quot;font-size: 9px;&quot;&gt;&lt;sub&gt;&lt;font style=&quot;font-size: 8px;&quot;&gt;&lt;font style=&quot;font-size: 9px;&quot;&gt;&lt;font style=&quot;font-size: 10px;&quot;&gt;verantwortlicher&lt;/font&gt;&lt;/font&gt;&lt;/font&gt;&lt;/sub&gt;&lt;/font&gt;" style="resizable=0;html=1;align=left;verticalAlign=bottom;labelBackgroundColor=none;fontSize=10;spacingTop=0;spacingLeft=4;spacing=0;spacingBottom=4;" parent="19y9xz3U2XeAm1oFRW64-4" connectable="0" vertex="1">
          <mxGeometry x="-1" relative="1" as="geometry" />
        </mxCell>
        <mxCell id="19y9xz3U2XeAm1oFRW64-6" value="&lt;font style=&quot;font-size: 9px;&quot;&gt;&lt;sub&gt;&lt;font style=&quot;font-size: 8px;&quot;&gt;&lt;font style=&quot;font-size: 9px;&quot;&gt;&lt;font style=&quot;font-size: 10px;&quot;&gt;vertreter&lt;/font&gt;&lt;/font&gt;&lt;/font&gt;&lt;/sub&gt;&lt;/font&gt;" style="resizable=0;html=1;align=left;verticalAlign=top;labelBackgroundColor=none;fontSize=10;spacingLeft=4;spacing=0;spacingBottom=0;spacingRight=0;spacingTop=-4;" parent="19y9xz3U2XeAm1oFRW64-4" connectable="0" vertex="1">
          <mxGeometry x="1" relative="1" as="geometry" />
        </mxCell>
      </root>
    </mxGraphModel>
  </diagram>
</mxfile>
